<?xml version="1.0" encoding="UTF-8" standalone="no"?>
<svg width="333px" height="315px" viewBox="0 0 333 315" version="1.1" xmlns="http://www.w3.org/2000/svg" xmlns:xlink="http://www.w3.org/1999/xlink" xmlns:sketch="http://www.bohemiancoding.com/sketch/ns">
    <!-- Generator: Sketch 3.3.3 (12081) - http://www.bohemiancoding.com/sketch -->
    <title>globedot</title>
    <desc>Created with Sketch.</desc>
    <defs></defs>
    <g id="Landing-Page" stroke="none" stroke-width="1" fill="none" fill-rule="evenodd" sketch:type="MSPage">
        <g id="anduin-landingpage-copy-4" sketch:type="MSArtboardGroup" transform="translate(-929.000000, -2157.000000)">
            <g id="globedot" sketch:type="MSLayerGroup" transform="translate(934.000000, 2161.000000)">
                <path d="M73.2,225.1 L72.4,225 L93.2,116.5 L94.1,116.7 L73.2,225.1 Z" id="Shape" fill="#000" sketch:type="MSShapeGroup"></path>
                <path d="M92.8,119.2 L30.5,122 L30.5,121.1 L92.7,118.4 L92.8,119.2 Z" id="Shape" fill="#000" sketch:type="MSShapeGroup"></path>
                <path d="M93.2,118.7 L92.3,119 L59.4,43.4 L60.3,43 L93.2,118.7 Z" id="Shape" fill="#000" sketch:type="MSShapeGroup"></path>
                <path d="M30.9,121.7 L30.1,121.4 L59.4,43.1 L60.3,43.3 L30.9,121.7 Z" id="Shape" fill="#000" sketch:type="MSShapeGroup"></path>
                <path d="M2,181.6 L1.2,181.3 L28.4,122.1 L29.3,122.4 L2,181.6 Z" id="Shape" fill="#000" sketch:type="MSShapeGroup"></path>
                <path d="M42.6,250.2 L1.2,181.6 L2,181.2 L43.4,249.8 L42.6,250.2 Z" id="Shape" fill="#000" sketch:type="MSShapeGroup"></path>
                <path d="M43.3,250.3 L42.7,249.7 L72.5,224.7 L73.1,225.4 L43.3,250.3 Z" id="Shape" fill="#000" sketch:type="MSShapeGroup"></path>
                <path d="M110.7,300.4 L110.1,299.7 L196,232.5 L196.6,233.1 L110.7,300.4 Z" id="Shape" fill="#000" sketch:type="MSShapeGroup"></path>
                <path d="M74.3,222.4 L73.7,221.8 L139.3,165.3 L139.9,165.9 L74.3,222.4 Z" id="Shape" fill="#000" sketch:type="MSShapeGroup"></path>
                <path d="M139.3,165.9 L92.4,119.1 L93.1,118.5 L140,165.3 L139.3,165.9 Z" id="Shape" fill="#000" sketch:type="MSShapeGroup"></path>
                <path d="M93.1,119 L92.4,118.6 L149.3,30.3 L150.1,30.7 L93.1,119 Z" id="Shape" fill="#000" sketch:type="MSShapeGroup"></path>
                <path d="M196,233.1 L137.2,169.8 L137.9,169.2 L196.6,232.5 L196,233.1 Z" id="Shape" fill="#000" sketch:type="MSShapeGroup"></path>
                <path d="M196.7,233 L195.9,232.6 L228,189 L228.8,189.5 L196.7,233 Z" id="Shape" fill="#000" sketch:type="MSShapeGroup"></path>
                <path d="M313,205.1 L228.3,189.7 L228.5,188.9 L313.1,204.3 L313,205.1 Z" id="Shape" fill="#000" sketch:type="MSShapeGroup"></path>
                <path d="M316.4,132.2 L255.1,93.9 L255.6,93.3 L316.9,131.5 L316.4,132.2 Z" id="Shape" fill="#000" sketch:type="MSShapeGroup"></path>
                <path d="M255.7,93.9 L255,93.3 L284.5,59.4 L285.2,60 L255.7,93.9 Z" id="Shape" fill="#000" sketch:type="MSShapeGroup"></path>
                <path d="M222.6,20.7 L149.8,30.9 L149.6,30.1 L222.5,19.9 L222.6,20.7 Z" id="Shape" fill="#000" sketch:type="MSShapeGroup"></path>
                <path d="M138.8,14.6 L60.2,45.3 L59.8,44.6 L138.4,13.9 L138.8,14.6 Z" id="Shape" fill="#000" sketch:type="MSShapeGroup"></path>
                <path d="M222.5,20.7 L138.6,14.7 L138.7,13.8 L222.6,19.9 L222.5,20.7 Z" id="Shape" fill="#000" sketch:type="MSShapeGroup"></path>
                <path d="M2.1,181.5 L1.2,181.4 L12.2,109.5 L13.1,109.6 L2.1,181.5 Z" id="Shape" fill="#000" sketch:type="MSShapeGroup"></path>
                <path d="M185.1,145.1 L91.9,117.7 L92.1,116.9 L185.3,144.3 L185.1,145.1 Z" id="Shape" fill="#000" sketch:type="MSShapeGroup"></path>
                <path d="M168.9,274.6 L75.9,222.8 L76.4,222.1 L169.4,273.9 L168.9,274.6 Z" id="Shape" fill="#000" sketch:type="MSShapeGroup"></path>
                <path d="M110.6,300.4 L110.2,299.7 L167.6,275.1 L168,275.8 L110.6,300.4 Z" id="Shape" fill="#000" sketch:type="MSShapeGroup"></path>
                <path d="M250.1,94.9 L93.9,118.6 L93.8,117.8 L250,94.1 L250.1,94.9 Z" id="Shape" fill="#000" sketch:type="MSShapeGroup"></path>
                <path d="M316.7,132.3 L185.2,145.1 L185.2,144.2 L316.6,131.5 L316.7,132.3 Z" id="Shape" fill="#000" sketch:type="MSShapeGroup"></path>
                <path d="M197.8,33.7 L88.6,73.8 L88.3,73 L197.5,32.9 L197.8,33.7 Z" id="Shape" fill="#000" sketch:type="MSShapeGroup"></path>
                <path d="M282.9,60.7 L200.8,91 L200.5,90.2 L282.6,59.9 L282.9,60.7 Z" id="Shape" fill="#000" sketch:type="MSShapeGroup"></path>
                <path d="M282.6,60.7 L197.5,33.7 L197.8,32.9 L282.9,59.9 L282.6,60.7 Z" id="Shape" fill="#000" sketch:type="MSShapeGroup"></path>
                <path d="M196.7,32.1 L132.5,7.1 L132.8,6.3 L197.1,31.4 L196.7,32.1 Z" id="Shape" fill="#000" sketch:type="MSShapeGroup"></path>
                <path d="M87.6,72.3 L86.8,71.8 L132.2,6.5 L133,6.9 L87.6,72.3 Z" id="Shape" fill="#000" sketch:type="MSShapeGroup"></path>
                <path d="M61.3,41.6 L60.9,40.8 L132.4,6.3 L132.8,7 L61.3,41.6 Z" id="Shape" fill="#000" sketch:type="MSShapeGroup"></path>
                <path d="M10.5,106.7 L10.1,106 L88.3,73 L88.6,73.8 L10.5,106.7 Z" id="Shape" fill="#000" sketch:type="MSShapeGroup"></path>
                <path d="M10.6,106.6 L9.9,106.1 L60.8,41 L61.5,41.4 L10.6,106.6 Z" id="Shape" fill="#000" sketch:type="MSShapeGroup"></path>
                <rect id="Rectangle-path" fill="#000" sketch:type="MSShapeGroup" transform="translate(10.949365, 145.650713) rotate(-0.844369) translate(-10.949365, -145.650713) " x="10.4993616" y="106.300375" width="0.90000773" height="78.7006759"></rect>
                <path d="M76.5,186.2 L9.9,106.6 L10.6,106.1 L77.2,185.7 L76.5,186.2 Z" id="Shape" fill="#000" sketch:type="MSShapeGroup"></path>
                <path d="M75,189.4 L74.1,189.3 L88,73.3 L88.9,73.4 L75,189.4 Z" id="Shape" fill="#000" sketch:type="MSShapeGroup"></path>
                <path d="M149.5,134.1 L88.1,73.7 L88.8,73.1 L150.2,133.5 L149.5,134.1 Z" id="Shape" fill="#000" sketch:type="MSShapeGroup"></path>
                <path d="M150.1,134.1 L149.5,133.5 L200.3,90.3 L200.9,90.9 L150.1,134.1 Z" id="Shape" fill="#000" sketch:type="MSShapeGroup"></path>
                <path d="M77.2,186.3 L76.6,185.7 L145.3,131.5 L145.9,132.2 L77.2,186.3 Z" id="Shape" fill="#000" sketch:type="MSShapeGroup"></path>
                <path d="M123.9,215.9 L76.6,186.3 L77.1,185.6 L124.4,215.2 L123.9,215.9 Z" id="Shape" fill="#000" sketch:type="MSShapeGroup"></path>
                <path d="M124.5,215.6 L123.7,215.4 L147,132.8 L147.9,133 L124.5,215.6 Z" id="Shape" fill="#000" sketch:type="MSShapeGroup"></path>
                <path d="M226.4,239 L124,215.9 L124.2,215.1 L226.6,238.2 L226.4,239 Z" id="Shape" fill="#000" sketch:type="MSShapeGroup"></path>
                <path d="M104.2,277.9 L103.3,278.2 L76.4,186.1 L77.3,185.9 L104.2,277.9 Z" id="Shape" fill="#000" sketch:type="MSShapeGroup"></path>
                <path d="M103.6,278.4 L41.8,250.5 L42.2,249.7 L104,277.7 L103.6,278.4 Z" id="Shape" fill="#000" sketch:type="MSShapeGroup"></path>
                <path d="M42.5,249.9 L41.6,250.2 L11.1,185.2 L12,184.9 L42.5,249.9 Z" id="Shape" fill="#000" sketch:type="MSShapeGroup"></path>
                <path d="M194,297.2 L105.1,277.3 L105.3,276.5 L194.2,296.4 L194,297.2 Z" id="Shape" fill="#000" sketch:type="MSShapeGroup"></path>
                <path d="M194.5,297 L193.7,296.6 L227.6,240.2 L228.4,240.6 L194.5,297 Z" id="Shape" fill="#000" sketch:type="MSShapeGroup"></path>
                <path d="M264.5,267.8 L227.7,240.7 L228.3,240.1 L265.1,267.2 L264.5,267.8 Z" id="Shape" fill="#000" sketch:type="MSShapeGroup"></path>
                <path d="M194.3,297.2 L193.9,296.4 L264.6,267.1 L265,267.9 L194.3,297.2 Z" id="Shape" fill="#000" sketch:type="MSShapeGroup"></path>
                <path d="M265.2,267.7 L264.4,267.2 L311.7,204.2 L312.4,204.7 L265.2,267.7 Z" id="Shape" fill="#000" sketch:type="MSShapeGroup"></path>
                <path d="M228.2,240.8 L227.8,240 L311.9,204 L312.2,204.8 L228.2,240.8 Z" id="Shape" fill="#000" sketch:type="MSShapeGroup"></path>
                <path d="M311.8,202.8 L310.9,203 L296.1,143.2 L297,143 L311.8,202.8 Z" id="Shape" fill="#000" sketch:type="MSShapeGroup"></path>
                <path d="M297,143 L296.1,143.1 L280.4,60.5 L281.3,60.4 L297,143 Z" id="Shape" fill="#000" sketch:type="MSShapeGroup"></path>
                <path d="M314.6,132.7 L313.8,133 L280.4,60.6 L281.2,60.3 L314.6,132.7 Z" id="Shape" fill="#000" sketch:type="MSShapeGroup"></path>
                <path d="M310.6,204.6 L309.7,204.6 L313.7,132.8 L314.6,132.9 L310.6,204.6 Z" id="Shape" fill="#000" sketch:type="MSShapeGroup"></path>
                <path d="M282.5,60.6 L221.3,22.7 L221.8,22 L283,59.9 L282.5,60.6 Z" id="Shape" fill="#000" sketch:type="MSShapeGroup"></path>
                <path d="M221.3,21 L132.6,7.1 L132.7,6.3 L221.4,20.2 L221.3,21 Z" id="Shape" fill="#000" sketch:type="MSShapeGroup"></path>
                <path d="M173,175.9 L172.1,175.6 L201.8,89.8 L202.7,90.1 L173,175.9 Z" id="Shape" fill="#000" sketch:type="MSShapeGroup"></path>
                <path d="M76.5,184.6 L31.6,161.4 L32,160.6 L76.9,183.8 L76.5,184.6 Z" id="Shape" fill="#000" sketch:type="MSShapeGroup"></path>
                <path d="M30.9,159.5 L30.1,159.8 L9.8,106.5 L10.7,106.2 L30.9,159.5 Z" id="Shape" fill="#000" sketch:type="MSShapeGroup"></path>
                <path d="M246.8,137.7 L246,138 L199.6,34.3 L200.5,34 L246.8,137.7 Z" id="Shape" fill="#000" sketch:type="MSShapeGroup"></path>
                <path d="M225.9,242.1 L225,241.9 L246,137.8 L246.8,137.9 L225.9,242.1 Z" id="Shape" fill="#000" sketch:type="MSShapeGroup"></path>
                <path d="M110.2,301.6 L41.8,250.4 L42.3,249.8 L110.8,301 L110.2,301.6 Z" id="Shape" fill="#000" sketch:type="MSShapeGroup"></path>
                <path d="M194.2,297.2 L110.5,301.7 L110.4,300.9 L194.1,296.4 L194.2,297.2 Z" id="Shape" fill="#000" sketch:type="MSShapeGroup"></path>
                <path d="M171.5,172.5 L171.1,171.8 L244.1,138.7 L244.5,139.4 L171.5,172.5 Z" id="Shape" fill="#000" sketch:type="MSShapeGroup"></path>
                <path d="M309.6,202.1 L243,138.5 L243.6,138 L310.2,201.5 L309.6,202.1 Z" id="Shape" fill="#000" sketch:type="MSShapeGroup"></path>
                <path d="M197.1,293.9 L196.2,294 L172.1,175.8 L173,175.7 L197.1,293.9 Z" id="Shape" fill="#000" sketch:type="MSShapeGroup"></path>
                <path d="M13.1038883,179.489494 C14.5194981,182.481846 13.1038883,186.056045 9.77304168,187.385979 C6.52546627,188.715914 2.6949927,187.385979 1.19611174,184.310506 C-0.219498062,181.318154 1.19611174,177.743955 4.52695832,176.414021 C7.8578049,175.084086 11.6882785,176.414021 13.1038883,179.489494 L13.1038883,179.489494 Z" id="Shape" fill="#DC4713" sketch:type="MSShapeGroup"></path>
                <path d="M37.5538883,120.080794 C38.9694981,123.076242 37.5538883,126.654138 34.2230417,127.985448 C30.9754663,129.316758 27.0617215,127.985448 25.6461117,124.906793 C24.2305019,121.911345 25.6461117,118.333449 28.9769583,117.002139 C32.3078049,115.670829 36.1382785,117.085346 37.5538883,120.080794 L37.5538883,120.080794 Z" id="Shape" fill="#DC4713" sketch:type="MSShapeGroup"></path>
                <path d="M67.4538883,42.5807939 C68.8694981,45.5762416 67.4538883,49.1541375 64.1230417,50.4854476 C60.8754663,51.8167577 57.0449927,50.4854476 55.5461117,47.406793 C54.1305019,44.4113453 55.5461117,40.8334494 58.8769583,39.5021393 C62.1245337,38.1708292 65.9550073,39.5853462 67.4538883,42.5807939 L67.4538883,42.5807939 Z" id="Shape" fill="#43526D" sketch:type="MSShapeGroup"></path>
                <path d="M99.4538883,116.580794 C100.869498,119.576242 99.4538883,123.154138 96.1230417,124.485448 C92.8754663,125.816758 89.0449927,124.485448 87.5461117,121.406793 C86.1305019,118.411345 87.5461117,114.833449 90.8769583,113.502139 C94.1245337,112.170829 97.9550073,113.585346 99.4538883,116.580794 L99.4538883,116.580794 Z" id="Shape" fill="#D9722D" sketch:type="MSShapeGroup"></path>
                <path d="M81.4538883,221.580794 C82.8694981,224.576242 81.4538883,228.154138 78.1230417,229.485448 C74.7921951,230.816758 70.9617215,229.485448 69.5461117,226.406793 C68.1305019,223.411345 69.5461117,219.833449 72.8769583,218.502139 C76.1245337,217.170829 79.9550073,218.585346 81.4538883,221.580794 L81.4538883,221.580794 Z" id="Shape" fill="#D9722D" sketch:type="MSShapeGroup"></path>
                <path d="M175.453888,270.589494 C176.869498,273.581846 175.453888,277.156045 172.123042,278.485979 C168.875466,279.815914 165.044993,278.485979 163.546112,275.410506 C162.130502,272.418154 163.546112,268.843955 166.876958,267.514021 C170.207805,266.184086 174.038278,267.514021 175.453888,270.589494 L175.453888,270.589494 Z" id="Shape" fill="#D9722D" sketch:type="MSShapeGroup"></path>
                <path d="M203.453888,228.580794 C204.869498,231.576242 203.453888,235.154138 200.123042,236.485448 C196.875466,237.816758 193.044993,236.485448 191.546112,233.406793 C190.130502,230.411345 191.546112,226.833449 194.876958,225.502139 C198.207805,224.170829 202.038278,225.585346 203.453888,228.580794 L203.453888,228.580794 Z" id="Shape" fill="#D9722D" sketch:type="MSShapeGroup"></path>
                <path d="M143.453888,163.580794 C144.869498,166.576242 143.453888,170.154138 140.123042,171.485448 C136.875466,172.816758 133.044993,171.485448 131.546112,168.406793 C130.130502,165.411345 131.546112,161.833449 134.876958,160.502139 C138.207805,159.170829 142.038278,160.585346 143.453888,163.580794 L143.453888,163.580794 Z" id="Shape" fill="#DC4713" sketch:type="MSShapeGroup"></path>
                <path d="M185.453888,143.555938 C186.869498,146.560229 185.453888,150.148688 182.123042,151.483929 C178.875466,152.819169 175.044993,151.483929 173.546112,148.396185 C172.130502,145.391894 173.546112,141.803435 176.876958,140.468194 C180.124534,139.216407 183.955007,140.551647 185.453888,143.555938 L185.453888,143.555938 Z" id="Shape" fill="#D9722D" sketch:type="MSShapeGroup"></path>
                <path d="M230.953888,189.480794 C232.369498,192.476242 230.953888,196.054138 227.623042,197.385448 C224.375466,198.716758 220.544993,197.385448 219.046112,194.306793 C217.630502,191.311345 219.046112,187.733449 222.376958,186.402139 C225.707805,185.070829 229.538278,186.485346 230.953888,189.480794 L230.953888,189.480794 Z" id="Shape" fill="#DC4713" sketch:type="MSShapeGroup"></path>
                <path d="M261.453888,92.5807939 C262.869498,95.5762416 261.453888,99.1541375 258.123042,100.485448 C254.875466,101.816758 251.044993,100.485448 249.546112,97.406793 C248.130502,94.4113453 249.546112,90.8334494 252.876958,89.5021393 C256.124534,88.1708292 259.955007,89.5853462 261.453888,92.5807939 L261.453888,92.5807939 Z" id="Shape" fill="#D9722D" sketch:type="MSShapeGroup"></path>
                <path d="M154.453888,27.5559381 C155.869498,30.5602292 154.453888,34.148688 151.123042,35.4839285 C147.875466,36.819169 144.044993,35.4839285 142.546112,32.3961849 C141.130502,29.3918938 142.546112,25.803435 145.876958,24.4681945 C149.124534,23.2164065 153.038278,24.551647 154.453888,27.5559381 L154.453888,27.5559381 Z" id="Shape" fill="#D9722D" sketch:type="MSShapeGroup"></path>
                <path d="M282.453888,63.5807939 C283.869498,66.5762416 282.453888,70.1541375 279.123042,71.4854476 C275.875466,72.8167577 272.044993,71.4854476 270.546112,68.406793 C269.130502,65.4113453 270.546112,61.8334494 273.876958,60.5021393 C277.207805,59.1708292 281.038278,60.5853462 282.453888,63.5807939 L282.453888,63.5807939 Z" id="Shape" fill="#DC4713" sketch:type="MSShapeGroup"></path>
                <path d="M224.131736,25.4859793 C220.881065,26.8159137 217.046942,25.4859793 215.546632,22.4105061 C214.129673,19.4181537 215.546632,15.843955 218.880653,14.5140207 C222.131323,13.1840863 225.965447,14.5140207 227.465756,17.5894939 C228.882715,20.5818463 227.382406,24.156045 224.131736,25.4859793 L224.131736,25.4859793 Z" id="Shape" fill="#D9722D" sketch:type="MSShapeGroup"></path>
                <path d="M133.098086,11.4859793 C129.859394,12.8159137 126.039399,11.4859793 124.544618,8.41050607 C123.13288,5.41815371 124.544618,1.84395505 127.866353,0.514020663 C131.105045,-0.815913722 134.92504,0.514020663 136.419821,3.58949393 C137.914602,6.66496719 136.419821,10.156045 133.098086,11.4859793 L133.098086,11.4859793 Z" id="Shape" fill="#DC4713" sketch:type="MSShapeGroup"></path>
                <path d="M200.098086,37.4859793 C196.859394,38.8159137 193.039399,37.4859793 191.544618,34.4105061 C190.13288,31.4181537 191.544618,27.843955 194.866353,26.5140207 C198.105045,25.1840863 201.92504,26.5140207 203.419821,29.5894939 C204.914602,32.6649672 203.419821,36.156045 200.098086,37.4859793 L200.098086,37.4859793 Z" id="Shape" fill="#D9722D" sketch:type="MSShapeGroup"></path>
                <path d="M285.131736,64.7859793 C281.881065,66.1159137 278.046942,64.7859793 276.546632,61.7105061 C275.129673,58.7181537 276.546632,55.143955 279.880653,53.8140207 C283.131323,52.4840863 286.965447,53.8140207 288.465756,56.8894939 C289.882715,59.8818463 288.382406,63.456045 285.131736,64.7859793 L285.131736,64.7859793 Z" id="Shape" fill="#D9722D" sketch:type="MSShapeGroup"></path>
                <path d="M203.131736,94.4859793 C199.881065,95.8159137 196.046942,94.4859793 194.546632,91.4105061 C193.129673,88.4181537 194.546632,84.843955 197.880653,83.5140207 C201.131323,82.1840863 204.965447,83.5140207 206.465756,86.5894939 C207.882715,89.5818463 206.382406,93.156045 203.131736,94.4859793 L203.131736,94.4859793 Z" id="Shape" fill="#D9722D" sketch:type="MSShapeGroup"></path>
                <path d="M92.1317356,76.4859793 C88.8810654,77.8159137 85.0469415,76.4859793 83.5466322,73.4105061 C82.1296733,70.4181537 83.5466322,66.843955 86.8806529,65.5140207 C90.1313232,64.1840863 93.9654471,65.5140207 95.4657564,68.5894939 C96.8827152,71.5818463 95.3824059,75.156045 92.1317356,76.4859793 L92.1317356,76.4859793 Z" id="Shape" fill="#DC4713" sketch:type="MSShapeGroup"></path>
                <path d="M36.1317356,165.485979 C32.8810654,166.815914 29.0469415,165.485979 27.5466322,162.410506 C26.1296733,159.418154 27.5466322,155.843955 30.8806529,154.514021 C34.1313232,153.184086 37.9654471,154.514021 39.4657564,157.589494 C40.8827152,160.581846 39.3824059,164.156045 36.1317356,165.485979 L36.1317356,165.485979 Z" id="Shape" fill="#D9722D" sketch:type="MSShapeGroup"></path>
                <path d="M80.1230417,190.485979 C76.8754663,191.815914 73.0449927,190.485979 71.5461117,187.410506 C70.1305019,184.418154 71.5461117,180.843955 74.8769583,179.514021 C78.2078049,178.184086 81.9550073,179.514021 83.4538883,182.589494 C84.8694981,185.664967 83.4538883,189.156045 80.1230417,190.485979 L80.1230417,190.485979 Z" id="Shape" fill="#D9722D" sketch:type="MSShapeGroup"></path>
                <path d="M151.131736,138.485979 C147.881065,139.815914 144.046942,138.485979 142.546632,135.410506 C141.129673,132.418154 142.546632,128.843955 145.880653,127.514021 C149.131323,126.184086 152.965447,127.514021 154.465756,130.589494 C155.882715,133.664967 154.382406,137.156045 151.131736,138.485979 L151.131736,138.485979 Z" id="Shape" fill="#D9722D" sketch:type="MSShapeGroup"></path>
                <path d="M175.098086,176.485979 C171.859394,177.815914 168.039399,176.485979 166.544618,173.410506 C165.13288,170.418154 166.544618,166.843955 169.866353,165.514021 C173.105045,164.184086 176.92504,165.514021 178.419821,168.589494 C179.914602,171.581846 178.419821,175.156045 175.098086,176.485979 L175.098086,176.485979 Z" id="Shape" fill="#D9722D" sketch:type="MSShapeGroup"></path>
                <path d="M127.131736,217.485979 C123.881065,218.815914 120.046942,217.485979 118.546632,214.410506 C117.129673,211.418154 118.546632,207.843955 121.880653,206.514021 C125.131323,205.184086 128.965447,206.514021 130.465756,209.589494 C131.882715,212.664967 130.382406,216.156045 127.131736,217.485979 L127.131736,217.485979 Z" id="Shape" fill="#DC4713" sketch:type="MSShapeGroup"></path>
                <path d="M230.119347,245.485979 C226.868677,246.815914 223.034553,245.485979 221.534244,242.410506 C220.117285,239.418154 221.617594,235.843955 224.868264,234.514021 C228.118935,233.184086 231.953058,234.514021 233.453368,237.589494 C234.870327,240.664967 233.453368,244.156045 230.119347,245.485979 L230.119347,245.485979 Z" id="Shape" fill="#D9722D" sketch:type="MSShapeGroup"></path>
                <path d="M246.131736,144.485979 C242.881065,145.815914 239.046942,144.485979 237.546632,141.410506 C236.129673,138.418154 237.546632,134.843955 240.880653,133.514021 C244.131323,132.184086 247.965447,133.514021 249.465756,136.589494 C250.882715,139.664967 249.382406,143.156045 246.131736,144.485979 L246.131736,144.485979 Z" id="Shape" fill="#D9722D" sketch:type="MSShapeGroup"></path>
                <path d="M295.123042,151.485979 C291.875466,152.815914 288.044993,151.485979 286.546112,148.410506 C285.130502,145.418154 286.546112,141.843955 289.876958,140.514021 C293.207805,139.184086 297.038278,140.514021 298.453888,143.589494 C299.869498,146.664967 298.453888,150.156045 295.123042,151.485979 L295.123042,151.485979 Z" id="Shape" fill="#D9722D" sketch:type="MSShapeGroup"></path>
                <path d="M319.098086,136.485979 C315.859394,137.815914 312.039399,136.485979 310.544618,133.410506 C309.13288,130.418154 310.544618,126.843955 313.866353,125.514021 C317.105045,124.184086 320.92504,125.514021 322.419821,128.589494 C323.914602,131.581846 322.419821,135.156045 319.098086,136.485979 L319.098086,136.485979 Z" id="Shape" fill="#DC4713" sketch:type="MSShapeGroup"></path>
                <path d="M314.131736,208.485979 C310.881065,209.815914 306.963591,208.485979 305.546632,205.410506 C304.129673,202.418154 305.546632,198.843955 308.880653,197.514021 C312.131323,196.184086 315.965447,197.514021 317.465756,200.589494 C318.882715,203.581846 317.382406,207.156045 314.131736,208.485979 L314.131736,208.485979 Z" id="Shape" fill="#D9722D" sketch:type="MSShapeGroup"></path>
                <path d="M264.131736,272.485979 C260.881065,273.815914 257.046942,272.485979 255.546632,269.410506 C254.129673,266.418154 255.546632,262.843955 258.880653,261.514021 C262.131323,260.184086 265.965447,261.514021 267.465756,264.589494 C268.882715,267.664967 267.382406,271.156045 264.131736,272.485979 L264.131736,272.485979 Z" id="Shape" fill="#D9722D" sketch:type="MSShapeGroup"></path>
                <path d="M196.098086,299.485979 C192.859394,300.815914 188.956355,299.485979 187.544618,296.410506 C186.13288,293.418154 187.544618,289.843955 190.866353,288.514021 C194.105045,287.184086 197.92504,288.514021 199.419821,291.589494 C200.914602,294.664967 199.419821,298.156045 196.098086,299.485979 L196.098086,299.485979 Z" id="Shape" fill="#DC4713" sketch:type="MSShapeGroup"></path>
                <path d="M109.123042,280.485979 C105.875466,281.815914 102.044993,280.485979 100.546112,277.410506 C99.1305019,274.418154 100.546112,270.843955 103.876958,269.514021 C107.124534,268.184086 110.955007,269.514021 112.453888,272.589494 C113.869498,275.581846 112.453888,279.156045 109.123042,280.485979 L109.123042,280.485979 Z" id="Shape" fill="#D9722D" sketch:type="MSShapeGroup"></path>
                <path d="M113.098086,304.485979 C109.859394,305.815914 106.039399,304.485979 104.544618,301.410506 C103.13288,298.418154 104.544618,294.843955 107.866353,293.514021 C111.105045,292.184086 114.92504,293.514021 116.419821,296.589494 C117.914602,299.664967 116.419821,303.156045 113.098086,304.485979 L113.098086,304.485979 Z" id="Shape" fill="#D9722D" sketch:type="MSShapeGroup"></path>
                <path d="M46.1317356,255.485979 C42.8810654,256.815914 39.0469415,255.485979 37.5466322,252.410506 C36.1296733,249.418154 37.5466322,245.843955 40.8806529,244.514021 C44.1313232,243.184086 47.9654471,244.514021 49.4657564,247.589494 C50.8827152,250.581846 49.3824059,254.156045 46.1317356,255.485979 L46.1317356,255.485979 Z" id="Shape" fill="#D9722D" sketch:type="MSShapeGroup"></path>
                <path d="M14.1317356,113.485979 C10.8810654,114.815914 7.04694151,113.485979 5.54663216,110.410506 C4.12967333,107.418154 5.54663216,103.843955 8.88065293,102.514021 C12.1313232,101.184086 15.9654471,102.514021 17.4657564,105.589494 C18.8827152,108.664967 17.3824059,112.156045 14.1317356,113.485979 L14.1317356,113.485979 Z" id="Shape" fill="#D9722D" sketch:type="MSShapeGroup"></path>
                <path d="M65.1317356,48.4859793 C61.8810654,49.8159137 57.963591,48.4859793 56.5466322,45.4105061 C55.1296733,42.4181537 56.5466322,38.843955 59.8806529,37.5140207 C63.2146737,36.1840863 66.9654471,37.5140207 68.4657564,40.5894939 C69.8827152,43.5818463 68.3824059,47.156045 65.1317356,48.4859793 L65.1317356,48.4859793 Z" id="Shape" fill="#D9722D" sketch:type="MSShapeGroup"></path>
            </g>
        </g>
    </g>
</svg>